<mxfile host="app.diagrams.net" modified="2024-03-19T04:28:54.482Z" agent="Mozilla/5.0 (Windows NT 10.0; Win64; x64) AppleWebKit/537.36 (KHTML, like Gecko) Chrome/122.0.0.0 Safari/537.36 Edg/122.0.0.0" etag="72fbFpCYziaUUcKbUAiJ" version="24.0.7" type="github">
  <diagram id="C5RBs43oDa-KdzZeNtuy" name="Page-1">
    <mxGraphModel dx="1171" dy="889" grid="1" gridSize="10" guides="1" tooltips="1" connect="1" arrows="1" fold="1" page="1" pageScale="1" pageWidth="827" pageHeight="1169" math="0" shadow="0">
      <root>
        <mxCell id="WIyWlLk6GJQsqaUBKTNV-0" />
        <mxCell id="WIyWlLk6GJQsqaUBKTNV-1" parent="WIyWlLk6GJQsqaUBKTNV-0" />
        <mxCell id="wjh4HL2NTXj8xxAW0JAj-8" value="" style="edgeStyle=orthogonalEdgeStyle;rounded=0;orthogonalLoop=1;jettySize=auto;html=1;" edge="1" parent="WIyWlLk6GJQsqaUBKTNV-1" source="wjh4HL2NTXj8xxAW0JAj-3" target="wjh4HL2NTXj8xxAW0JAj-6">
          <mxGeometry relative="1" as="geometry" />
        </mxCell>
        <mxCell id="wjh4HL2NTXj8xxAW0JAj-3" value="PolyLine" style="verticalLabelPosition=middle;verticalAlign=middle;html=1;shape=offPageConnector;rounded=0;size=0.5;labelPosition=center;align=center;labelBackgroundColor=none;fillColor=#FFFF33;" vertex="1" parent="WIyWlLk6GJQsqaUBKTNV-1">
          <mxGeometry x="380" y="40" width="120" height="40" as="geometry" />
        </mxCell>
        <mxCell id="wjh4HL2NTXj8xxAW0JAj-10" value="" style="edgeStyle=orthogonalEdgeStyle;rounded=0;orthogonalLoop=1;jettySize=auto;html=1;" edge="1" parent="WIyWlLk6GJQsqaUBKTNV-1" source="wjh4HL2NTXj8xxAW0JAj-6" target="wjh4HL2NTXj8xxAW0JAj-9">
          <mxGeometry relative="1" as="geometry" />
        </mxCell>
        <mxCell id="wjh4HL2NTXj8xxAW0JAj-6" value="Create &lt;font color=&quot;#ff00ff&quot;&gt;name&lt;/font&gt; point attribute" style="strokeWidth=2;html=1;shape=mxgraph.flowchart.terminator;whiteSpace=wrap;" vertex="1" parent="WIyWlLk6GJQsqaUBKTNV-1">
          <mxGeometry x="380" y="120" width="120" height="60" as="geometry" />
        </mxCell>
        <mxCell id="wjh4HL2NTXj8xxAW0JAj-12" style="edgeStyle=orthogonalEdgeStyle;rounded=0;orthogonalLoop=1;jettySize=auto;html=1;fillColor=#dae8fc;strokeColor=#6c8ebf;" edge="1" parent="WIyWlLk6GJQsqaUBKTNV-1" source="wjh4HL2NTXj8xxAW0JAj-9" target="wjh4HL2NTXj8xxAW0JAj-11">
          <mxGeometry relative="1" as="geometry" />
        </mxCell>
        <mxCell id="wjh4HL2NTXj8xxAW0JAj-17" style="edgeStyle=orthogonalEdgeStyle;rounded=0;orthogonalLoop=1;jettySize=auto;html=1;" edge="1" parent="WIyWlLk6GJQsqaUBKTNV-1" source="wjh4HL2NTXj8xxAW0JAj-9" target="wjh4HL2NTXj8xxAW0JAj-15">
          <mxGeometry relative="1" as="geometry" />
        </mxCell>
        <mxCell id="wjh4HL2NTXj8xxAW0JAj-9" value="&lt;font color=&quot;#007fff&quot;&gt;Orient Joints&lt;/font&gt;&lt;div&gt;Convert polyline to KineFX joints&lt;/div&gt;" style="rounded=1;whiteSpace=wrap;html=1;fillColor=#dae8fc;strokeColor=#6c8ebf;" vertex="1" parent="WIyWlLk6GJQsqaUBKTNV-1">
          <mxGeometry x="380" y="240" width="120" height="60" as="geometry" />
        </mxCell>
        <mxCell id="wjh4HL2NTXj8xxAW0JAj-11" value="&lt;font color=&quot;#007fff&quot;&gt;Rig Pose&lt;/font&gt;&lt;div&gt;Adjust animation&lt;/div&gt;" style="rounded=1;whiteSpace=wrap;html=1;fillColor=#dae8fc;strokeColor=#6c8ebf;" vertex="1" parent="WIyWlLk6GJQsqaUBKTNV-1">
          <mxGeometry x="380" y="360" width="120" height="60" as="geometry" />
        </mxCell>
        <mxCell id="wjh4HL2NTXj8xxAW0JAj-16" style="edgeStyle=orthogonalEdgeStyle;rounded=0;orthogonalLoop=1;jettySize=auto;html=1;" edge="1" parent="WIyWlLk6GJQsqaUBKTNV-1" source="wjh4HL2NTXj8xxAW0JAj-13" target="wjh4HL2NTXj8xxAW0JAj-15">
          <mxGeometry relative="1" as="geometry" />
        </mxCell>
        <mxCell id="wjh4HL2NTXj8xxAW0JAj-13" value="Poly Mesh" style="verticalLabelPosition=middle;verticalAlign=middle;html=1;shape=offPageConnector;rounded=0;size=0.5;labelPosition=center;align=center;labelBackgroundColor=none;fillColor=#FFFF33;" vertex="1" parent="WIyWlLk6GJQsqaUBKTNV-1">
          <mxGeometry x="60" y="130" width="120" height="40" as="geometry" />
        </mxCell>
        <mxCell id="wjh4HL2NTXj8xxAW0JAj-27" style="edgeStyle=orthogonalEdgeStyle;rounded=0;orthogonalLoop=1;jettySize=auto;html=1;" edge="1" parent="WIyWlLk6GJQsqaUBKTNV-1" source="wjh4HL2NTXj8xxAW0JAj-15" target="wjh4HL2NTXj8xxAW0JAj-18">
          <mxGeometry relative="1" as="geometry" />
        </mxCell>
        <mxCell id="wjh4HL2NTXj8xxAW0JAj-30" value="Capture Pose" style="edgeLabel;html=1;align=center;verticalAlign=middle;resizable=0;points=[];" vertex="1" connectable="0" parent="wjh4HL2NTXj8xxAW0JAj-27">
          <mxGeometry x="0.55" relative="1" as="geometry">
            <mxPoint as="offset" />
          </mxGeometry>
        </mxCell>
        <mxCell id="wjh4HL2NTXj8xxAW0JAj-15" value="Capture weights" style="strokeWidth=2;html=1;shape=mxgraph.flowchart.terminator;whiteSpace=wrap;" vertex="1" parent="WIyWlLk6GJQsqaUBKTNV-1">
          <mxGeometry x="60" y="240" width="120" height="60" as="geometry" />
        </mxCell>
        <mxCell id="wjh4HL2NTXj8xxAW0JAj-18" value="&lt;font color=&quot;#007fff&quot;&gt;Joint Deformer&lt;/font&gt;&lt;div&gt;Character animation&lt;/div&gt;" style="rounded=1;whiteSpace=wrap;html=1;fillColor=#dae8fc;strokeColor=#6c8ebf;" vertex="1" parent="WIyWlLk6GJQsqaUBKTNV-1">
          <mxGeometry x="60" y="460" width="120" height="80" as="geometry" />
        </mxCell>
        <mxCell id="wjh4HL2NTXj8xxAW0JAj-26" style="edgeStyle=orthogonalEdgeStyle;rounded=0;orthogonalLoop=1;jettySize=auto;html=1;entryX=-0.001;entryY=0.633;entryDx=0;entryDy=0;entryPerimeter=0;" edge="1" parent="WIyWlLk6GJQsqaUBKTNV-1" source="wjh4HL2NTXj8xxAW0JAj-15" target="wjh4HL2NTXj8xxAW0JAj-18">
          <mxGeometry relative="1" as="geometry" />
        </mxCell>
        <mxCell id="wjh4HL2NTXj8xxAW0JAj-29" value="Rest Geometry" style="edgeLabel;html=1;align=center;verticalAlign=middle;resizable=0;points=[];" vertex="1" connectable="0" parent="wjh4HL2NTXj8xxAW0JAj-26">
          <mxGeometry x="0.443" relative="1" as="geometry">
            <mxPoint as="offset" />
          </mxGeometry>
        </mxCell>
        <mxCell id="wjh4HL2NTXj8xxAW0JAj-28" style="edgeStyle=orthogonalEdgeStyle;rounded=0;orthogonalLoop=1;jettySize=auto;html=1;entryX=1.006;entryY=0.602;entryDx=0;entryDy=0;entryPerimeter=0;" edge="1" parent="WIyWlLk6GJQsqaUBKTNV-1" source="wjh4HL2NTXj8xxAW0JAj-11" target="wjh4HL2NTXj8xxAW0JAj-18">
          <mxGeometry relative="1" as="geometry" />
        </mxCell>
        <mxCell id="wjh4HL2NTXj8xxAW0JAj-31" value="Animated Pose" style="edgeLabel;html=1;align=center;verticalAlign=middle;resizable=0;points=[];" vertex="1" connectable="0" parent="wjh4HL2NTXj8xxAW0JAj-28">
          <mxGeometry x="0.0017" y="1" relative="1" as="geometry">
            <mxPoint as="offset" />
          </mxGeometry>
        </mxCell>
      </root>
    </mxGraphModel>
  </diagram>
</mxfile>
